<?xml version="1.0" encoding="UTF-8" standalone="no"?>
<svg
   xmlns:dc="http://purl.org/dc/elements/1.1/"
   xmlns:cc="http://creativecommons.org/ns#"
   xmlns:rdf="http://www.w3.org/1999/02/22-rdf-syntax-ns#"
   xmlns:svg="http://www.w3.org/2000/svg"
   xmlns="http://www.w3.org/2000/svg"
   xmlns:sodipodi="http://sodipodi.sourceforge.net/DTD/sodipodi-0.dtd"
   xmlns:inkscape="http://www.inkscape.org/namespaces/inkscape"
   width="191.14774mm"
   height="171.88531mm"
   viewBox="0 0 191.14774 171.88531"
   version="1.1"
   id="svg8"
   inkscape:version="1.0.1 (3bc2e813f5, 2020-09-07)"
   sodipodi:docname="cdm.svg">
  <defs
     id="defs2" />
  <sodipodi:namedview
     id="base"
     pagecolor="#ffffff"
     bordercolor="#666666"
     borderopacity="1.0"
     inkscape:pageopacity="0.0"
     inkscape:pageshadow="2"
     inkscape:zoom="0.70710678"
     inkscape:cx="111.87986"
     inkscape:cy="324.648"
     inkscape:document-units="mm"
     inkscape:current-layer="layer1"
     inkscape:document-rotation="0"
     showgrid="false"
     inkscape:window-width="1366"
     inkscape:window-height="699"
     inkscape:window-x="1272"
     inkscape:window-y="-8"
     inkscape:window-maximized="1"
     showguides="false"
     fit-margin-top="0"
     fit-margin-left="0"
     fit-margin-right="0"
     fit-margin-bottom="0">
    <sodipodi:guide
       position="-10.763797,174.67747"
       orientation="0,793.70079"
       id="guide8" />
    <sodipodi:guide
       position="199.23621,174.67747"
       orientation="1122.5197,0"
       id="guide10" />
    <sodipodi:guide
       position="199.23621,-122.32254"
       orientation="0,-793.70079"
       id="guide12" />
    <sodipodi:guide
       position="-10.763797,-122.32254"
       orientation="-1122.5197,0"
       id="guide14" />
  </sodipodi:namedview>
  <metadata
     id="metadata5">
    <rdf:RDF>
      <cc:Work
         rdf:about="">
        <dc:format>image/svg+xml</dc:format>
        <dc:type
           rdf:resource="http://purl.org/dc/dcmitype/StillImage" />
        <dc:title />
      </cc:Work>
    </rdf:RDF>
  </metadata>
  <g
     inkscape:label="Capa 1"
     inkscape:groupmode="layer"
     id="layer1"
     transform="translate(-10.763796,-2.7921509)">
    <path
       style="fill:#3555b5;fill-opacity:1;stroke-width:0.264583"
       d="m 52.398449,173.4523 c -6.28598,-4.30355 -10.66356,-8.01669 -16.38018,-13.89395 -9.36062,-9.62366 -16.25818,-21.38986 -20.83924,-35.5486 -2.45307,-7.58174 -4.41789,-20.68694 -4.41523,-29.449311 0.004,-12.30973 1.9093,-22.53416 6.18629,-33.19284 7.29016,-18.167768 18.57689,-31.937251 35.30308,-43.068719 8.8004,-5.856767 19.39188,-10.4902656 30.12606,-13.1793726 7.87869,-1.97376 13.81743,-2.67462 14.75119,-1.74086 0.35774,0.35775 0.41577,1.42773 0.41577,7.6668166 v 7.251044 l -0.6523,0.427403 c -0.35876,0.235071 -2.94837,0.884769 -5.75469,1.443773 -16.91091,3.368569 -30.00907,10.192021 -41.35966,21.546197 -6.29555,6.297541 -10.78263,12.582974 -14.68021,20.563808 -10.47047,21.43972 -9.25268,48.281801 3.1128,68.611231 2.87888,4.73302 9.64962,13.19381 10.11956,12.64552 0.0991,-0.11556 0.44467,-0.84374 0.76804,-1.61819 0.32338,-0.77445 2.08312,-4.52492 3.91054,-8.33438 4.18325,-8.72042 10.34064,-21.65823 13.18118,-27.69607 1.19807,-2.54662 3.9368,-8.321161 6.08607,-12.832301 2.14926,-4.51115 4.36718,-9.18435 4.9287,-10.3849 l 1.02095,-2.18281 h 9.74331 9.74331 l 0.33177,4.29948 c 0.18247,2.36471 0.6228,7.45464 0.978509,11.31094 0.3557,3.8563 0.88157,9.809431 1.168582,13.229171 0.86408,10.29527 1.04058,12.32546 1.58716,18.25625 0.28834,3.1287 0.65285,7.11729 0.81002,8.86354 0.44954,4.99445 0.99216,6.3001 2.75579,6.63096 1.77077,0.3322 3.4634,-0.68895 4.04909,-2.44279 0.39235,-1.17487 1.42573,-11.84196 3.1227,-32.234 0.79925,-9.604381 1.65328,-19.813991 1.89785,-22.688031 l 0.44468,-5.22552 h 9.86396 c 8.18624,0 9.86396,0.0618 9.86396,0.36329 0,0.19981 0.78707,1.95598 1.74904,3.9026 0.96198,1.94663 2.49941,5.20619 3.41652,7.24349 0.9171,2.03729 2.28616,5.01385 3.04233,6.61458 0.75618,1.600731 3.67146,7.851511 6.47841,13.890631 2.80695,6.03911 6.28137,13.48052 7.72093,16.53646 1.43957,3.05594 3.56506,7.6081 4.72331,10.11591 1.15825,2.50782 2.24579,4.56164 2.41675,4.56406 0.46179,0.007 4.10452,-4.23123 6.36433,-7.40393 16.33496,-22.93375 18.53615,-50.771821 5.99037,-75.759261 -6.15631,-12.261535 -16.06565,-22.828901 -28.40824,-30.294697 -4.63272,-2.802233 -12.1313,-6.393965 -13.34891,-6.393965 -0.38931,0 -0.42487,2.258668 -0.40919,25.995312 0.009,14.29742 0.0133,26.14414 0.008,26.32604 -0.007,0.25847 -2.14765,0.33073 -9.79829,0.33073 h -9.78958 V 40.298434 c 0,-34.4039466 0.0237,-36.2479066 0.47346,-36.8033066 0.72426,-0.89443 2.31931,-0.92753 6.93487,-0.14392 17.64304,2.99537 32.87551,9.6837366 45.43358,19.9492606 6.63763,5.425893 14.34315,13.669767 18.30338,19.582165 7.64165,11.408544 12.41522,23.243906 14.43185,35.781626 1.38009,8.58025 1.59408,11.26333 1.59072,19.94549 -0.003,7.224921 -0.075,8.659151 -0.60562,12.038551 -2.09773,13.35855 -6.37065,24.74502 -13.20536,35.18958 -2.49222,3.80852 -5.94482,8.4677 -7.77479,10.49182 -2.41853,2.67514 -11.11774,10.99306 -13.46202,12.87196 -2.71677,2.17746 -7.60323,5.4758 -8.11233,5.4758 -0.20246,0 -0.44241,-0.20836 -0.53324,-0.46302 -0.0908,-0.25466 -2.51379,-5.64224 -5.38437,-11.97239 -8.25366,-18.20083 -16.72248,-36.90122 -18.21288,-40.21667 -2.46774,-5.4896 -3.93329,-8.34733 -4.07063,-7.9375 -0.0732,0.21828 -1.10547,8.31453 -2.29405,17.99167 -2.77807,22.61844 -3.17356,25.4243 -3.66332,25.98976 -0.50059,0.57796 -2.78989,1.44062 -5.12874,1.93261 -6.25451,1.31568 -19.45256,1.0482 -26.297321,-0.53295 -2.44297,-0.56433 -4.57463,-1.43771 -4.72828,-1.93728 -0.076,-0.24696 -1.39705,-10.14806 -2.93574,-22.00245 -1.5387,-11.85439 -2.84215,-21.59794 -2.89655,-21.65235 -0.0544,-0.0544 -0.21523,0.11964 -0.35739,0.38677 -0.33801,0.63513 -9.66645,21.25099 -13.14963,29.06068 -1.49278,3.34698 -3.93185,8.76432 -5.42015,12.03854 -1.48831,3.27422 -3.35406,7.44141 -4.14612,9.26042 -2.44264,5.60965 -4.65704,10.05416 -5.00932,10.05416 -0.18488,0 -1.14143,-0.55132 -2.12567,-1.22516 z"
       id="path26" />
  </g>
</svg>
